name C:\Users\u0101727\Documents\MyRepositories\paper-ad\trackingsimulations_3d\Results\TrackSim\IK_c15.mot
datacolumns 32
datarows 11
range 3.45000000 3.61000000
endheader
time	pelvis_tilt	pelvis_list	pelvis_rotation	pelvis_tx	pelvis_ty	pelvis_tz	hip_flexion_l	hip_adduction_l	hip_rotation_l	hip_flexion_r	hip_adduction_r	hip_rotation_r	knee_angle_l	knee_angle_r	ankle_angle_l	ankle_angle_r	subtalar_angle_l	subtalar_angle_r	lumbar_extension	lumbar_bending	lumbar_rotation	arm_flex_l	arm_add_l	arm_rot_l	arm_flex_r	arm_add_r	arm_rot_r	elbow_flex_l	elbow_flex_r	pro_sup_l	pro_sup_r	
          3.45000000	         -2.16756388	          4.39156492	          4.40680322	         -0.50803263	          0.94275073	         -0.22994833	         15.03910076	          9.17221291	          3.46800910	         13.63094283	         -1.82840290	         -2.18402071	        -22.08708519	        -65.05715408	          5.24525865	        -12.89948788	          5.73634546	        -13.56748487	         -4.52113836	         -4.05458473	         -3.34535316	         -1.83158115	        -15.69863853	         17.86810409	         -4.80580024	        -16.91121844	         12.14230003	         21.29098314	         23.55045849	         86.51662706	         86.51662706	
          3.46600000	         -2.19625535	          4.17911879	          4.34357196	         -0.48971819	          0.94562825	         -0.23050521	         13.63837959	          8.92445731	          3.80452302	         16.81344307	         -1.91120769	         -2.03143064	        -21.93497317	        -66.32308036	          6.90041463	        -10.75351394	          5.94633513	        -12.83947068	         -4.69834486	         -3.91077276	         -3.82699983	         -1.63094553	        -15.90342699	         17.29445212	         -5.00450783	        -16.82742175	         12.39309877	         22.62828522	         23.04929264	         86.51662706	         86.51662706	
          3.48200000	         -2.17408203	          3.89068065	          4.28349457	         -0.47131418	          0.94829604	         -0.23101066	         12.12714803	          8.58177513	          4.12926793	         19.71479411	         -1.90805168	         -1.95369665	        -21.59546032	        -66.59784493	          8.07167241	         -8.84620933	          6.02304186	        -11.88081584	         -4.89024235	         -3.65427899	         -4.29353684	         -1.42308256	        -16.08609696	         16.78595919	         -5.27503371	        -16.76623276	         12.44334636	         23.94320213	         22.62626365	         86.51662706	         86.51662706	
          3.49800000	         -2.11694428	          3.52392817	          4.32583057	         -0.45279817	          0.95062055	         -0.23162421	         10.55514075	          8.18601123	          4.56708157	         22.28304554	         -1.83978681	         -2.03985992	        -21.14228665	        -65.88372905	          8.78676869	         -7.16927027	          5.86083609	        -10.91691675	         -5.08704958	         -3.27744759	         -4.82704169	         -1.20070908	        -16.25196432	         16.38270860	         -5.63850078	        -16.72371904	         12.20217348	         25.22000153	         22.32435640	         86.51662706	         86.51662706	
          3.51400000	         -2.03790220	          3.11252719	          4.43907575	         -0.43414857	          0.95248243	         -0.23227693	          8.94158698	          7.74866424	          5.06235133	         24.50962901	         -1.74639279	         -2.26155431	        -20.61623122	        -64.24126313	          9.23607490	         -5.60034377	          5.56944690	        -10.19933670	         -5.27887467	         -2.82822942	         -5.38938352	         -0.96766821	        -16.41968155	         16.07903791	         -6.07250726	        -16.68478301	         11.70386607	         26.46236917	         22.11237425	         86.51662706	         86.51662706	
          3.53000000	         -1.94157174	          2.69390918	          4.58050255	         -0.41534583	          0.95379753	         -0.23286994	          7.29004497	          7.27612682	          5.52350253	         26.38705425	         -1.65338459	         -2.56877418	        -20.04604953	        -61.73339059	          9.60867614	         -4.00563505	          5.30244159	         -9.91051265	         -5.46610739	         -2.36098216	         -5.93991143	         -0.73048409	        -16.60537335	         15.84890859	         -6.53350101	        -16.63328516	         11.04647737	         27.66802318	         21.92594104	         86.51662706	         86.51662706	
          3.54600000	         -1.82886557	          2.30781479	          4.72473820	         -0.39635728	          0.95452155	         -0.23335292	          5.58622082	          6.78998056	          5.88905291	         27.90050857	         -1.59109724	         -2.92092690	        -19.42525442	        -58.42598807	          9.99596790	         -2.42513334	          5.16197465	        -10.04011238	         -5.65264140	         -1.92724114	         -6.46110618	         -0.49607497	        -16.81433162	         15.67193311	         -6.98253870	        -16.55862449	         10.33014897	         28.81674168	         21.70868290	         86.51662706	         86.51662706	
          3.56200000	         -1.69919356	          1.98505289	          4.86813077	         -0.37715393	          0.95464809	         -0.23373125	          3.81490166	          6.31882808	          6.15087099	         29.04448838	         -1.59046698	         -3.29748547	        -18.73973197	        -54.42660135	         10.41293932	         -1.24232085	          5.17946944	        -10.27308148	         -5.84413372	         -1.56235027	         -6.95608075	         -0.26593569	        -17.04080453	         15.54145371	         -7.39385042	        -16.45763090	          9.63134907	         29.87508102	         21.42832215	         86.51662706	         86.51662706	
          3.57800000	         -1.55889826	          1.73891981	          5.01990449	         -0.35772690	          0.95419486	         -0.23403834	          1.98318659	          5.88530878	          6.34041869	         29.83712790	         -1.67108452	         -3.72209627	        -17.99513202	        -49.84782940	         10.83986710	         -0.87249268	          5.33004620	        -10.37692459	         -6.03824206	         -1.27912995	         -7.43373338	         -0.03478105	        -17.27084523	         15.46200114	         -7.75287132	        -16.33314196	          9.00370274	         30.80446052	         21.07011312	         86.51662706	         86.51662706	
          3.59400000	         -1.41970048	          1.57674505	          5.17985172	         -0.33808173	          0.95319207	         -0.23429270	          0.11758345	          5.51144176	          6.50462262	         30.32091617	         -1.83509571	         -4.21183028	        -17.21824350	        -44.81050704	         11.24268944	         -1.21688500	          5.55099260	        -10.07470543	         -6.22622443	         -1.08439223	         -7.88632324	          0.20819637	        -17.48729183	         15.44200507	         -8.05203125	        -16.19035836	          8.48655698	         31.56670773	         20.62602445	         86.51662706	         86.51662706	
          3.61000000	         -1.29048170	          1.49586316	          5.34122444	         -0.31821688	          0.95168465	         -0.23448607	         -1.75079594	          5.20781514	          6.69974771	         30.54257357	         -2.05855941	         -4.77891549	        -16.44981408	        -39.44419407	         11.59256410	         -1.57251400	          5.77132420	         -9.31015676	         -6.39956996	         -0.97562449	         -8.29241353	          0.47540078	        -17.67327971	         15.49046094	         -8.28979372	        -16.03418095	          8.11012690	         32.12805907	         20.08753057	         86.51662706	         86.51662706	
